<?xml version="1.0" encoding="UTF-8"?>
<svg version="1.1" xmlns="http://www.w3.org/2000/svg" width="119" height="135">
<path d="M0 0 C0.63035156 0.19464844 1.26070312 0.38929687 1.91015625 0.58984375 C13.09911624 4.23326232 20.77663785 12.73982434 26 23 C29.90136746 32.19708647 29.41163062 44.97923126 27.16015625 54.58203125 C25.96007491 57.53576681 24.57171839 60.22660372 23 63 C22.40703125 64.17433594 21.8140625 65.34867187 21.203125 66.55859375 C17.830226 73.21179565 14.11005105 79.63296149 10.125 85.9375 C9.74375977 86.54706543 9.36251953 87.15663086 8.96972656 87.78466797 C8.0361456 89.22781805 7.024802 90.62013174 6 92 C5.34 92 4.68 92 4 92 C3.78472656 92.67546875 3.56945312 93.3509375 3.34765625 94.046875 C1.57641472 97.92820427 -0.88848359 100.94942149 -3.5625 104.25 C-4.06974609 104.88679688 -4.57699219 105.52359375 -5.09960938 106.1796875 C-8.75496032 110.75496032 -8.75496032 110.75496032 -10 112 C-16.23529412 112.58823529 -16.23529412 112.58823529 -19.4375 110.125 C-21 108 -21 108 -21 106 C-21.66 106 -22.32 106 -23 106 C-23 105.34 -23 104.68 -23 104 C-23.66 104 -24.32 104 -25 104 C-26.23681641 102.56298828 -26.23681641 102.56298828 -27.6015625 100.5703125 C-28.09140625 99.85746094 -28.58125 99.14460938 -29.0859375 98.41015625 C-29.59382813 97.65605469 -30.10171875 96.90195313 -30.625 96.125 C-31.140625 95.37863281 -31.65625 94.63226563 -32.1875 93.86328125 C-36 88.265563 -36 88.265563 -36 86 C-36.66 86 -37.32 86 -38 86 C-38.99 83.03 -38.99 83.03 -40 80 C-40.66 80 -41.32 80 -42 80 C-60.30654238 47.74561581 -60.30654238 47.74561581 -55.8125 29.4375 C-52.72743879 19.28250687 -46.99359977 9.33994898 -37.58203125 3.9140625 C-26.05028593 -2.21365314 -12.60410833 -4.78956117 0 0 Z M-36 23 C-36.33 23.99 -36.66 24.98 -37 26 C-37.66 26 -38.32 26 -39 26 C-42.60496996 34.75492704 -44.69224789 40.95933201 -41.25 50.125 C-40.52127079 51.75964942 -39.77305457 53.38584027 -39 55 C-38.505 56.051875 -38.01 57.10375 -37.5 58.1875 C-32.83455012 63.43613112 -25.86395612 67.90752088 -18.8125 69 C-9.47259859 69 -1.48034476 67.8231728 5.82421875 61.39453125 C7.38665621 59.67466936 8.70240014 57.9261248 10 56 C10.4125 55.43925781 10.825 54.87851563 11.25 54.30078125 C15.28133985 47.84783795 14.8750556 40.32568669 14 33 C11.63839613 24.79424278 6.39025338 19.27390661 -0.80078125 14.90625 C-12.97997515 9.27304683 -27.63843766 12.75034293 -36 23 Z " fill="#0C65B8" transform="translate(73,11)"/>
<path d="M0 0 C0.63035156 0.19464844 1.26070312 0.38929687 1.91015625 0.58984375 C13.09911624 4.23326232 20.77663785 12.73982434 26 23 C28.51892444 28.72564031 28.22785577 34.24321345 28.125 40.375 C28.11597656 41.39722656 28.10695313 42.41945312 28.09765625 43.47265625 C28.0742043 45.98201522 28.04138355 48.49088336 28 51 C27.34 51 26.68 51 26 51 C26 44.73 26 38.46 26 32 C25.505 32.99 25.505 32.99 25 34 C23.02 33.505 23.02 33.505 21 33 C21.020625 31.9275 21.04125 30.855 21.0625 29.75 C21.0142016 26.85209576 20.86844115 24.71387859 20 22 C19.67 22.66 19.34 23.32 19 24 C18.34 24 17.68 24 17 24 C16.01270763 28.44281567 15.9822115 32.62511009 16.10546875 37.15234375 C16.1332662 38.74738799 16.16059538 40.34244045 16.1875 41.9375 C16.21263672 42.73607422 16.23777344 43.53464844 16.26367188 44.35742188 C16.32151533 49.01189183 16.19892257 52.3089355 13 56 C12.01 56 11.02 56 10 56 C11.875 50.25 11.875 50.25 13 48 C13.79909846 38.86744622 13.87854809 30.51147812 8 23 C1.56458436 16.65922283 -4.64503701 13.73759544 -13.75 13.5625 C-20.68881138 13.63592658 -25.15042052 15.49484923 -31 19 C-31.99 19.33 -32.98 19.66 -34 20 C-35.16666667 21.91666667 -35.16666667 21.91666667 -36 24 C-36.33 24.66 -36.66 25.32 -37 26 C-37.66 26 -38.32 26 -39 26 C-39.12375 26.515625 -39.2475 27.03125 -39.375 27.5625 C-39.86616753 29.47805338 -40.44800731 31.3703753 -41.0625 33.25 C-43.56071321 43.24285284 -40.51300769 50.13661552 -36 59 C-36.66 59 -37.32 59 -38 59 C-38.66 58.34 -39.32 57.68 -40 57 C-41.98 57.495 -41.98 57.495 -44 58 C-44.99 62.95 -44.99 62.95 -46 68 C-45.34 68 -44.68 68 -44 68 C-44 69.98 -44 71.96 -44 74 C-47.49017352 70.78277674 -49.08120996 67.12429737 -51.0625 62.875 C-51.41376953 62.153125 -51.76503906 61.43125 -52.12695312 60.6875 C-57.39878562 49.48610165 -58.58870672 38.57584713 -54.96875 26.66015625 C-50.31749102 13.88794914 -42.37894789 6.09098607 -30.3671875 0.3125 C-21.14914768 -3.28061065 -9.25416222 -3.51658164 0 0 Z " fill="#0F65B7" transform="translate(73,11)"/>
<path d="M0 0 C5.06820049 2.60312243 5.06820049 2.60312243 6.14453125 5.453125 C6.19996094 6.04609375 6.25539062 6.6390625 6.3125 7.25 C5.49265625 7.97445312 4.6728125 8.69890625 3.828125 9.4453125 C2.73927085 10.42152657 1.65074668 11.39810879 0.5625 12.375 C0.02367187 12.849375 -0.51515625 13.32375 -1.0703125 13.8125 C-3.8276313 16.30081209 -5.81466287 18.44437753 -7.875 21.59375 C-8.473125 22.4703125 -9.07125 23.346875 -9.6875 24.25 C-12.9375 24.625 -12.9375 24.625 -15.6875 24.25 C-16.0175 22.27 -16.3475 20.29 -16.6875 18.25 C-11.9375 15.25 -11.9375 15.25 -9.6875 15.25 C-9.6875 14.59 -9.6875 13.93 -9.6875 13.25 C-12.57984315 12.42361624 -14.57492431 12.25 -17.6875 12.25 C-17.6875 12.91 -17.6875 13.57 -17.6875 14.25 C-18.3475 14.25 -19.0075 14.25 -19.6875 14.25 C-20.491028 17.975448 -20.95370739 20.48465376 -19.6875 24.125 C-16.92421293 27.06099251 -14.61394911 27.02774816 -10.6875 27.25 C-10.3575 29.23 -10.0275 31.21 -9.6875 33.25 C-16.2417681 33.63554518 -19.12559355 32.46570288 -24 28.25 C-26.56441752 23.69103552 -26.45615131 19.3615312 -25.6875 14.25 C-23.57904487 10.56020353 -21.56531982 8.84018511 -17.6875 7.25 C-15.25 7.01953125 -15.25 7.01953125 -12.6875 7.0625 C-11.841875 7.06894531 -10.99625 7.07539062 -10.125 7.08203125 C-7.85497523 7.23845924 -5.86788396 7.61910186 -3.6875 8.25 C-3.0275 7.26 -2.3675 6.27 -1.6875 5.25 C-10.89585847 2.12936741 -10.89585847 2.12936741 -20.0078125 4.23828125 C-25.38755316 7.47863667 -27.75700065 10.15368627 -29.6875 16.25 C-30.45219405 21.66570993 -29.39324401 25.51494798 -26.6875 30.25 C-26.6875 30.91 -26.6875 31.57 -26.6875 32.25 C-26.0275 32.25 -25.3675 32.25 -24.6875 32.25 C-24.6875 32.91 -24.6875 33.57 -24.6875 34.25 C-23.73875 34.559375 -22.79 34.86875 -21.8125 35.1875 C-18.6875 36.25 -18.6875 36.25 -16.6875 37.25 C-11.25815739 37.57576056 -6.86260883 36.70266213 -1.6875 35.25 C-1.1925 37.23 -1.1925 37.23 -0.6875 39.25 C-6.81059227 43.63198397 -13.5187434 43.15544838 -20.6875 42.25 C-24.37678102 40.84725109 -26.90495394 39.02653624 -29.6875 36.25 C-30.23277344 35.71632812 -30.77804688 35.18265625 -31.33984375 34.6328125 C-35.61867464 29.29908979 -35.5960714 22.66628792 -35.2421875 16.11328125 C-34.25362451 9.22814888 -31.02128445 5.46994131 -26.125 0.8125 C-17.71592123 -4.57793511 -8.87130136 -4.19216627 0 0 Z " fill="#4074B7" transform="translate(71.6875,31.75)"/>
<path d="M0 0 C6.76124849 4.37492549 11.1083964 12.2914933 13 20 C13.2304556 23.79612605 13.18876254 27.57377184 13.125 31.375 C13.11597656 32.39722656 13.10695313 33.41945312 13.09765625 34.47265625 C13.0742043 36.98201522 13.04138355 39.49088336 13 42 C12.34 42 11.68 42 11 42 C11 35.73 11 29.46 11 23 C10.67 23.66 10.34 24.32 10 25 C8.68 24.67 7.36 24.34 6 24 C6.020625 22.9275 6.04125 21.855 6.0625 20.75 C6.0142016 17.85209576 5.86844115 15.71387859 5 13 C4.67 13.66 4.34 14.32 4 15 C3.34 15 2.68 15 2 15 C1.01270763 19.44281567 0.9822115 23.62511009 1.10546875 28.15234375 C1.1332662 29.74738799 1.16059538 31.34244045 1.1875 32.9375 C1.21263672 33.73607422 1.23777344 34.53464844 1.26367188 35.35742188 C1.32151533 40.01189183 1.19892257 43.3089355 -2 47 C-2.99 47 -3.98 47 -5 47 C-3.125 41.25 -3.125 41.25 -2 39 C-1.19578138 29.80893006 -1.22864795 21.63307851 -7 14 C-8.77108804 12.28111245 -10.53419 10.77794361 -12.546875 9.3515625 C-14.34492305 7.67918448 -14.61411864 6.38637157 -15 4 C-14.01 4.33 -13.02 4.66 -12 5 C-10.64664105 4.02727325 -9.31337396 3.0260734 -8 2 C-7.01 2 -6.02 2 -5 2 C-5 2.66 -5 3.32 -5 4 C-4.01 4 -3.02 4 -2 4 C-2 3.34 -2 2.68 -2 2 C-1.34 2 -0.68 2 0 2 C0 1.34 0 0.68 0 0 Z " fill="#1F6BB7" transform="translate(88,20)"/>
<path d="M0 0 C0.66 0 1.32 0 2 0 C2 0.66 2 1.32 2 2 C2.66 2 3.32 2 4 2 C4.12117188 2.88042969 4.24234375 3.76085938 4.3671875 4.66796875 C4.53476562 5.82941406 4.70234375 6.99085937 4.875 8.1875 C5.03742187 9.33605469 5.19984375 10.48460937 5.3671875 11.66796875 C5.94060245 14.68724625 6.74759043 17.20575848 8 20 C8.66 20 9.32 20 10 20 C10 20.66 10 21.32 10 22 C10.94875 22.309375 11.8975 22.61875 12.875 22.9375 C16 24 16 24 18 25 C23.42934261 25.32576056 27.82489117 24.45266213 33 23 C33.495 24.98 33.495 24.98 34 27 C27.87690773 31.38198397 21.1687566 30.90544838 14 30 C10.31071898 28.59725109 7.78254606 26.77653624 5 24 C4.18208984 23.19949219 4.18208984 23.19949219 3.34765625 22.3828125 C-1.73758228 16.0438725 -0.41781331 7.65062591 0 0 Z " fill="#2C6AAD" transform="translate(37,44)"/>
<path d="M0 0 C3.34252724 -0.07427838 5.8035914 -0.06546953 9 1 C9.34342449 2.33076989 9.67619874 3.66431979 10 5 C10.99 5.66 11.98 6.32 13 7 C10.3260876 7.89130413 7.76276177 8.47731534 5 9 C4.67 10.32 4.34 11.64 4 13 C2.865625 12.979375 1.73125 12.95875 0.5625 12.9375 C-2.81575674 12.58422523 -2.81575674 12.58422523 -4 14 C-4.36162029 15.32594105 -4.69728039 16.65938457 -5 18 C-5.66 18 -6.32 18 -7 18 C-7 17.34 -7 16.68 -7 16 C-9.49092811 14.75453595 -10.41080733 15.2232422 -13 16 C-11.86475876 12.15764502 -10.8741331 8.8741331 -8 6 C-6.68 6 -5.36 6 -4 6 C-4 5.34 -4 4.68 -4 4 C-3.34 4 -2.68 4 -2 4 C-1.34 2.68 -0.68 1.36 0 0 Z " fill="#0F65B8" transform="translate(33,19)"/>
<path d="M0 0 C0.89203125 0.01804688 1.7840625 0.03609375 2.703125 0.0546875 C3.71632813 0.08949219 3.71632813 0.08949219 4.75 0.125 C4.75 0.455 4.75 0.785 4.75 1.125 C2.77 1.125 0.79 1.125 -1.25 1.125 C-1.25 1.785 -1.25 2.445 -1.25 3.125 C-0.59 3.455 0.07 3.785 0.75 4.125 C-1.23 4.455 -3.21 4.785 -5.25 5.125 C-5.25 5.785 -5.25 6.445 -5.25 7.125 C-5.91 7.125 -6.57 7.125 -7.25 7.125 C-8.053528 10.850448 -8.51620739 13.35965376 -7.25 17 C-4.48671293 19.93599251 -2.17644911 19.90274816 1.75 20.125 C2.08 22.105 2.41 24.085 2.75 26.125 C-3.8042681 26.51054518 -6.68809355 25.34070288 -11.5625 21.125 C-14.12691752 16.56603552 -14.01865131 12.2365312 -13.25 7.125 C-10.04558303 1.51727031 -6.30172958 -0.16583499 0 0 Z " fill="#3575B4" transform="translate(59.25,38.875)"/>
<path d="M0 0 C2 4 4 8 6 12 C5.34 12 4.68 12 4 12 C3.34 11.34 2.68 10.68 2 10 C0.68 10.33 -0.64 10.66 -2 11 C-2.66 14.3 -3.32 17.6 -4 21 C-3.34 21 -2.68 21 -2 21 C-2 22.98 -2 24.96 -2 27 C-5.43202302 24.22270137 -6.91022334 20.35938189 -8.6875 16.4375 C-9.00783203 15.75236328 -9.32816406 15.06722656 -9.65820312 14.36132812 C-12 9.27328758 -12 9.27328758 -12 7 C-10.68 7.33 -9.36 7.66 -8 8 C-7.67 7.01 -7.34 6.02 -7 5 C-6.01 5.66 -5.02 6.32 -4 7 C-0.77595022 5.33045181 -0.77595022 5.33045181 -0.3125 2.375 C-0.209375 1.59125 -0.10625 0.8075 0 0 Z " fill="#0764BB" transform="translate(31,58)"/>
<path d="M0 0 C0.66 0.33 1.32 0.66 2 1 C2 1.66 2 2.32 2 3 C2.99 3 3.98 3 5 3 C5.33 5.31 5.66 7.62 6 10 C3.69 10.66 1.38 11.32 -1 12 C-1 13.65 -1 15.3 -1 17 C-1.99 17.33 -2.98 17.66 -4 18 C-4 16.02 -4 14.04 -4 12 C-4.66 12 -5.32 12 -6 12 C-5.67 8.7 -5.34 5.4 -5 2 C-2.625 0.9375 -2.625 0.9375 0 0 Z " fill="#0962B7" transform="translate(33,67)"/>
<path d="M0 0 C1.06863281 0.01804687 2.13726562 0.03609375 3.23828125 0.0546875 C4.04652344 0.07789062 4.85476562 0.10109375 5.6875 0.125 C5.6875 0.455 5.6875 0.785 5.6875 1.125 C2.0575 1.125 -1.5725 1.125 -5.3125 1.125 C-4.9825 2.775 -4.6525 4.425 -4.3125 6.125 C-5.364375 6.49625 -6.41625 6.8675 -7.5 7.25 C-12.87718029 9.54673085 -16.04153065 13.75725426 -18.3125 19.125 C-18.3125 18.465 -18.3125 17.805 -18.3125 17.125 C-18.9725 17.125 -19.6325 17.125 -20.3125 17.125 C-20.98046875 15.37890625 -20.98046875 15.37890625 -21.3125 13.125 C-20.23828125 11.08984375 -20.23828125 11.08984375 -18.625 9.0625 C-18.10550781 8.39089844 -17.58601563 7.71929687 -17.05078125 7.02734375 C-12.12180817 1.63316422 -7.25456877 -0.15944107 0 0 Z " fill="#4278B5" transform="translate(59.3125,28.875)"/>
<path d="M0 0 C2.31 0 4.62 0 7 0 C7 5.28 7 10.56 7 16 C5.02 16 3.04 16 1 16 C0 15 0 15 -0.09765625 11.62109375 C-0.09098369 10.22652923 -0.07902532 8.83198257 -0.0625 7.4375 C-0.05798828 6.72658203 -0.05347656 6.01566406 -0.04882812 5.28320312 C-0.03700864 3.52209987 -0.01907263 1.76103964 0 0 Z " fill="#0C509D" transform="translate(74,49)"/>
<path d="M0 0 C0.28875 0.639375 0.5775 1.27875 0.875 1.9375 C1.82823451 4.15206079 1.82823451 4.15206079 4 5 C3.360625 5.78375 2.72125 6.5675 2.0625 7.375 C0.01857687 9.79539281 0.01857687 9.79539281 -1 12 C-2.98 12 -4.96 12 -7 12 C-7.33 10.02 -7.66 8.04 -8 6 C-3.25 3 -3.25 3 -1 3 C-0.67 2.01 -0.34 1.02 0 0 Z " fill="#507CB3" transform="translate(63,44)"/>
<path d="M0 0 C0.99 0 1.98 0 3 0 C6.63565507 6.13516793 7.4092866 11.24884584 7.4375 18.25 C7.44716797 19.03036621 7.45683594 19.81073242 7.46679688 20.61474609 C7.40067905 25.14673399 7.05873852 28.40148409 4 32 C3.01 32 2.02 32 1 32 C2.875 26.25 2.875 26.25 4 24 C4.65845878 15.26732541 4.65932038 7.6753983 0 0 Z " fill="#568ABD" transform="translate(82,35)"/>
<path d="M0 0 C0.99 0 1.98 0 3 0 C3.33 1.98 3.66 3.96 4 6 C-1.00566288 6.29445076 -3.99160747 6.11763863 -8 3 C-9.8125 0.8125 -9.8125 0.8125 -11 -1 C-6.66648733 -2.27456255 -4.17599814 -1.54330366 0 0 Z " fill="#4A80B7" transform="translate(58,59)"/>
<path d="M0 0 C0.66 1.32 1.32 2.64 2 4 C-4.56053812 13.5426009 -4.56053812 13.5426009 -8.08984375 14.6640625 C-10 14.625 -10 14.625 -13 14 C-13 13.67 -13 13.34 -13 13 C-11.02 13 -9.04 13 -7 13 C-7.061875 11.8553125 -7.061875 11.8553125 -7.125 10.6875 C-7 8 -7 8 -5 5 C-5.66 4.67 -6.32 4.34 -7 4 C-4 2 -4 2 0 2 C0 1.34 0 0.68 0 0 Z " fill="#1F69B4" transform="translate(69,109)"/>
<path d="M0 0 C0.66 0 1.32 0 2 0 C2 0.66 2 1.32 2 2 C2.66 2 3.32 2 4 2 C4 6.95 4 11.9 4 17 C2.68 16.67 1.36 16.34 0 16 C0 10.72 0 5.44 0 0 Z " fill="#4176AE" transform="translate(37,44)"/>
<path d="M0 0 C0.99 0.495 0.99 0.495 2 1 C1.67 1.99 1.34 2.98 1 4 C0.67 2.68 0.34 1.36 0 0 Z M-4 2 C-1.525 2.99 -1.525 2.99 1 4 C1 5.65 1 7.3 1 9 C1.99 9 2.98 9 4 9 C4 11.31 4 13.62 4 16 C4.66 16 5.32 16 6 16 C6 17.98 6 19.96 6 22 C2.56797698 19.22270137 1.08977666 15.35938189 -0.6875 11.4375 C-1.00783203 10.75236328 -1.32816406 10.06722656 -1.65820312 9.36132812 C-4 4.27328758 -4 4.27328758 -4 2 Z " fill="#2F72B5" transform="translate(23,63)"/>
<path d="M0 0 C0.886875 0.12375 1.77375 0.2475 2.6875 0.375 C2.28946439 3.26075819 1.89740931 4.19689513 -0.375 6.125 C-1.014375 6.5375 -1.65375 6.95 -2.3125 7.375 C-2.3125 6.715 -2.3125 6.055 -2.3125 5.375 C-2.9725 5.375 -3.6325 5.375 -4.3125 5.375 C-4.3125 6.035 -4.3125 6.695 -4.3125 7.375 C-5.3025 7.375 -6.2925 7.375 -7.3125 7.375 C-7.6425 8.695 -7.9725 10.015 -8.3125 11.375 C-9.9625 11.045 -11.6125 10.715 -13.3125 10.375 C-12.590625 9.83875 -11.86875 9.3025 -11.125 8.75 C-8.87362488 6.84883879 -7.55914623 5.43249906 -5.875 3.125 C-3.3125 0.375 -3.3125 0.375 0 0 Z " fill="#1466B6" transform="translate(85.3125,66.625)"/>
<path d="M0 0 C0.928125 0.20625 1.85625 0.4125 2.8125 0.625 C1.52284824 2.00062854 0.18560707 3.33266393 -1.1875 4.625 C-1.8475 4.625 -2.5075 4.625 -3.1875 4.625 C-3.496875 5.24375 -3.80625 5.8625 -4.125 6.5 C-4.8125 7.875 -5.5 9.25 -6.1875 10.625 C-6.8475 10.625 -7.5075 10.625 -8.1875 10.625 C-8.5175 11.615 -8.8475 12.605 -9.1875 13.625 C-9.166875 12.861875 -9.14625 12.09875 -9.125 11.3125 C-9.05807159 8.52314214 -9.05807159 8.52314214 -10.1875 5.625 C-8.5375 5.625 -6.8875 5.625 -5.1875 5.625 C-5.5175 4.305 -5.8475 2.985 -6.1875 1.625 C-3.1875 -0.375 -3.1875 -0.375 0 0 Z " fill="#3A7BBD" transform="translate(42.1875,26.375)"/>
<path d="M0 0 C0.66 0.33 1.32 0.66 2 1 C1.67 2.98 1.34 4.96 1 7 C0.34 7 -0.32 7 -1 7 C-0.67 14.59 -0.34 22.18 0 30 C-4.98570769 20.02858463 -3.28498352 10.28512696 0 0 Z " fill="#749AC1" transform="translate(19,35)"/>
<path d="M0 0 C2.31 0 4.62 0 7 0 C7 5.28 7 10.56 7 16 C5.02 16 3.04 16 1 16 C0 15 0 15 -0.09765625 11.62109375 C-0.09098369 10.22652923 -0.07902532 8.83198257 -0.0625 7.4375 C-0.05798828 6.72658203 -0.05347656 6.01566406 -0.04882812 5.28320312 C-0.03700864 3.52209987 -0.01907263 1.76103964 0 0 Z M1 1 C1 5.62 1 10.24 1 15 C2.65 15 4.3 15 6 15 C6.07654536 10.48382401 6.10228696 6.40914783 5 2 C3.68 1.67 2.36 1.34 1 1 Z " fill="#98B9DB" transform="translate(74,49)"/>
<path d="M0 0 C1.06863281 0.01804687 2.13726562 0.03609375 3.23828125 0.0546875 C4.04652344 0.07789062 4.85476562 0.10109375 5.6875 0.125 C5.6875 0.455 5.6875 0.785 5.6875 1.125 C2.0575 1.125 -1.5725 1.125 -5.3125 1.125 C-4.9825 2.775 -4.6525 4.425 -4.3125 6.125 C-6.6225 6.785 -8.9325 7.445 -11.3125 8.125 C-11.3125 7.465 -11.3125 6.805 -11.3125 6.125 C-12.6325 5.795 -13.9525 5.465 -15.3125 5.125 C-10.38283471 1.10823569 -6.35395142 -0.13964728 0 0 Z " fill="#6693C7" transform="translate(59.3125,28.875)"/>
<path d="M0 0 C0.66 0.33 1.32 0.66 2 1 C-1.28515921 4.28515921 -4.86786706 4.93552774 -9.4296875 5.1953125 C-10.56664062 5.17210938 -11.70359375 5.14890625 -12.875 5.125 C-14.02742188 5.10695313 -15.17984375 5.08890625 -16.3671875 5.0703125 C-17.23601563 5.04710938 -18.10484375 5.02390625 -19 5 C-19 4.34 -19 3.68 -19 3 C-14.34555712 2.3067851 -9.69923771 1.73978551 -5.015625 1.28125 C-2.79979665 1.03442625 -2.79979665 1.03442625 0 0 Z " fill="#4684BA" transform="translate(70,77)"/>
<path d="M0 0 C0.89203125 0.01804688 1.7840625 0.03609375 2.703125 0.0546875 C3.71632813 0.08949219 3.71632813 0.08949219 4.75 0.125 C4.75 0.455 4.75 0.785 4.75 1.125 C2.77 1.125 0.79 1.125 -1.25 1.125 C-1.25 1.785 -1.25 2.445 -1.25 3.125 C-0.59 3.455 0.07 3.785 0.75 4.125 C-0.8278125 4.3415625 -0.8278125 4.3415625 -2.4375 4.5625 C-5.40460549 5.00026966 -8.31794366 5.50304866 -11.25 6.125 C-10.3047226 3.76180651 -9.66996722 2.39497892 -7.5 1 C-4.84738096 -0.03157407 -2.83645051 -0.07464343 0 0 Z " fill="#4D81B9" transform="translate(59.25,38.875)"/>
<path d="M0 0 C2.31 0 4.62 0 7 0 C7 0.66 7 1.32 7 2 C8.32 2 9.64 2 11 2 C10.34 3.98 9.68 5.96 9 8 C8.34 8 7.68 8 7 8 C6.67 6.68 6.34 5.36 6 4 C4.68 4 3.36 4 2 4 C2 3.34 2 2.68 2 2 C1.34 2 0.68 2 0 2 C0 1.34 0 0.68 0 0 Z " fill="#175FAB" transform="translate(58,40)"/>
<path d="M0 0 C0.66 0.33 1.32 0.66 2 1 C1.49452628 5.08055151 -0.50088882 6.66272295 -3.5625 9.25 C-4.38878906 9.95640625 -5.21507813 10.6628125 -6.06640625 11.390625 C-6.70449219 11.92171875 -7.34257813 12.4528125 -8 13 C-8.33 12.01 -8.66 11.02 -9 10 C-8.34 9.01 -7.68 8.02 -7 7 C-8.32 7 -9.64 7 -11 7 C-10.67 6.34 -10.34 5.68 -10 5 C-7.03 5 -4.06 5 -1 5 C-0.67 3.35 -0.34 1.7 0 0 Z " fill="#6A95BF" transform="translate(76,35)"/>
<path d="M0 0 C0 0.66 0 1.32 0 2 C-0.99 2 -1.98 2 -3 2 C-3.061875 2.61875 -3.12375 3.2375 -3.1875 3.875 C-4 6 -4 6 -6.5 7.125 C-7.325 7.41375 -8.15 7.7025 -9 8 C-9.33 8.66 -9.66 9.32 -10 10 C-10.66 10 -11.32 10 -12 10 C-12 10.66 -12 11.32 -12 12 C-12.99 12 -13.98 12 -15 12 C-13.09263782 6.8501221 -5.78851341 0 0 0 Z " fill="#4C81BA" transform="translate(41,13)"/>
<path d="M0 0 C2.97 0.495 2.97 0.495 6 1 C6 2.98 6 4.96 6 7 C6.99 6.67 7.98 6.34 9 6 C8.67 7.98 8.34 9.96 8 12 C6.66666667 10.33333333 5.33333333 8.66666667 4 7 C3.2575 6.113125 2.515 5.22625 1.75 4.3125 C0 2 0 2 0 0 Z " fill="#3474B2" transform="translate(41,103)"/>
<path d="M0 0 C-0.25 1.875 -0.25 1.875 -1 4 C-2.8125 5.3125 -2.8125 5.3125 -5 6 C-7.25 5.625 -7.25 5.625 -9 5 C-8.01 4.34 -7.02 3.68 -6 3 C-6.99 2.34 -7.98 1.68 -9 1 C-3.375 -1.125 -3.375 -1.125 0 0 Z " fill="#5885BA" transform="translate(71,68)"/>
<path d="M0 0 C1.41778293 2.83556587 0.86257622 4.9908706 0.5625 8.125 C0.46066406 9.22070312 0.35882813 10.31640625 0.25390625 11.4453125 C0.17011719 12.28835937 0.08632813 13.13140625 0 14 C-0.99 13.67 -1.98 13.34 -3 13 C-3.08086147 11.20906809 -3.13912702 9.41710372 -3.1875 7.625 C-3.22230469 6.62726562 -3.25710937 5.62953125 -3.29296875 4.6015625 C-3.14794922 3.31378906 -3.14794922 3.31378906 -3 2 C-2.01 1.34 -1.02 0.68 0 0 Z " fill="#407BB3" transform="translate(49,44)"/>
<path d="M0 0 C1.98 0.495 1.98 0.495 4 1 C2.515 7.435 2.515 7.435 1 14 C0.67 14 0.34 14 0 14 C0.020625 12.7625 0.04125 11.525 0.0625 10.25 C0.07291197 7.30341276 -0.23285893 4.84938113 -1 2 C-0.67 1.34 -0.34 0.68 0 0 Z " fill="#206BB7" transform="translate(30,34)"/>
<path d="M0 0 C0.66 0 1.32 0 2 0 C1.34 2.64 0.68 5.28 0 8 C-2.31 8 -4.62 8 -7 8 C-5.60746468 4.51866169 -4.36823784 3.52113967 -1 2 C-0.67 1.34 -0.34 0.68 0 0 Z " fill="#0B62AE" transform="translate(62,114)"/>
<path d="M0 0 C3.63 0 7.26 0 11 0 C10.01 0.33 9.02 0.66 8 1 C8 1.66 8 2.32 8 3 C1.375 4.25 1.375 4.25 -2 2 C-1.34 2 -0.68 2 0 2 C0 1.34 0 0.68 0 0 Z " fill="#165AA6" transform="translate(54,30)"/>
<path d="M0 0 C0.28875 0.639375 0.5775 1.27875 0.875 1.9375 C1.82823451 4.15206079 1.82823451 4.15206079 4 5 C2.35 6.65 0.7 8.3 -1 10 C-1.12375 9.195625 -1.2475 8.39125 -1.375 7.5625 C-1.684375 6.2940625 -1.684375 6.2940625 -2 5 C-2.66 4.67 -3.32 4.34 -4 4 C-3.01 3.67 -2.02 3.34 -1 3 C-0.67 2.01 -0.34 1.02 0 0 Z " fill="#4E86C2" transform="translate(63,44)"/>
<path d="M0 0 C0.99 0 1.98 0 3 0 C1.58707905 4.8274799 -0.42974154 8.7162359 -3 13 C-3.93045933 10.44855176 -4.08564091 9.25993522 -3.22265625 6.640625 C-2.83980469 5.85171875 -2.45695312 5.0628125 -2.0625 4.25 C-1.68222656 3.45078125 -1.30195312 2.6515625 -0.91015625 1.828125 C-0.60980469 1.22484375 -0.30945313 0.6215625 0 0 Z " fill="#4F7CB6" transform="translate(92,74)"/>
<path d="M0 0 C-1.32 1.32 -2.64 2.64 -4 4 C-8.875 2.25 -8.875 2.25 -10 0 C-6.22996568 -2.61002376 -4.07631429 -1.66758312 0 0 Z " fill="#4C80BE" transform="translate(53,68)"/>
<path d="M0 0 C0.33 1.32 0.66 2.64 1 4 C0.01 4 -0.98 4 -2 4 C-2.33 5.32 -2.66 6.64 -3 8 C-4.65 7.67 -6.3 7.34 -8 7 C-7.236875 6.401875 -6.47375 5.80375 -5.6875 5.1875 C-3.6516425 3.53040668 -1.8021721 1.89702326 0 0 Z " fill="#477FBB" transform="translate(80,70)"/>
<path d="M0 0 C0.66 0.99 1.32 1.98 2 3 C2.99 3.66 3.98 4.32 5 5 C1.67395049 6.10868317 -1.53058454 6.54177532 -5 7 C-5 6.34 -5 5.68 -5 5 C-4.34 5 -3.68 5 -3 5 C-2.5359375 4.0409375 -2.5359375 4.0409375 -2.0625 3.0625 C-1 1 -1 1 0 0 Z " fill="#0861AF" transform="translate(41,21)"/>
<path d="M0 0 C0.66 0 1.32 0 2 0 C2.6875 1.8125 2.6875 1.8125 3 4 C2 5.75 2 5.75 0 7 C-3.6875 7.1875 -3.6875 7.1875 -7 7 C-7 6.67 -7 6.34 -7 6 C-5.02 6 -3.04 6 -1 6 C-1.020625 5.195625 -1.04125 4.39125 -1.0625 3.5625 C-1 1 -1 1 0 0 Z " fill="#4D8AC0" transform="translate(63,116)"/>
<path d="M0 0 C1.32 0.66 2.64 1.32 4 2 C-2.435 2.495 -2.435 2.495 -9 3 C-9.33 2.34 -9.66 1.68 -10 1 C-6.86358252 -0.56820874 -3.42820517 -0.38163039 0 0 Z " fill="#1861AC" transform="translate(73,11)"/>
<path d="M0 0 C0.33 0 0.66 0 1 0 C1.33 3.96 1.66 7.92 2 12 C1.34 12 0.68 12 0 12 C-0.19573608 10.56359829 -0.38127816 9.12580496 -0.5625 7.6875 C-0.66691406 6.88699219 -0.77132812 6.08648437 -0.87890625 5.26171875 C-1 3 -1 3 0 0 Z " fill="#0E57A6" transform="translate(39,49)"/>
<path d="M0 0 C1.65 0 3.3 0 5 0 C5 1.32 5 2.64 5 4 C3.02 4.33 1.04 4.66 -1 5 C-0.67 3.35 -0.34 1.7 0 0 Z " fill="#0F5FB0" transform="translate(70,36)"/>
<path d="M0 0 C0.33 0.66 0.66 1.32 1 2 C-4.61 1.67 -10.22 1.34 -16 1 C-16 0.67 -16 0.34 -16 0 C-14.27185839 -0.19672365 -12.54240803 -0.38196799 -10.8125 -0.5625 C-9.84957031 -0.66691406 -8.88664062 -0.77132813 -7.89453125 -0.87890625 C-5.02534118 -0.99893984 -2.75001434 -0.81572361 0 0 Z " fill="#73A2D3" transform="translate(70,23)"/>
<path d="M0 0 C2 4 4 8 6 12 C5.34 12 4.68 12 4 12 C0 8 0 8 -0.1953125 6.0546875 C-0.13020833 4.03645833 -0.06510417 2.01822917 0 0 Z " fill="#5289BF" transform="translate(31,58)"/>
<path d="M0 0 C-0.66 1.32 -1.32 2.64 -2 4 C-3.32 4 -4.64 4 -6 4 C-6 2.68 -6 1.36 -6 0 C-3 -1 -3 -1 0 0 Z " fill="#2769AB" transform="translate(49,35)"/>
<path d="M0 0 C3.465 1.98 3.465 1.98 7 4 C7 4.33 7 4.66 7 5 C4.36 5.33 1.72 5.66 -1 6 C-0.67 4.02 -0.34 2.04 0 0 Z " fill="#4D85C1" transform="translate(39,72)"/>
<path d="M0 0 C0.99 0 1.98 0 3 0 C3.33 1.98 3.66 3.96 4 6 C1.69 6 -0.62 6 -3 6 C-2.360625 5.71125 -1.72125 5.4225 -1.0625 5.125 C1.15206079 4.17176549 1.15206079 4.17176549 2 2 C1.01 1.67 0.02 1.34 -1 1 C-0.67 0.67 -0.34 0.34 0 0 Z " fill="#8FACCC" transform="translate(58,59)"/>
<path d="M0 0 C2.97 0.495 2.97 0.495 6 1 C5.6875 3.375 5.6875 3.375 5 6 C4.01 6.66 3.02 7.32 2 8 C2.50603992 5.83125748 2.99983813 4.00032373 4 2 C2.68 2 1.36 2 0 2 C0 1.34 0 0.68 0 0 Z " fill="#437ABB" transform="translate(65,40)"/>
<path d="M0 0 C2.31 0.33 4.62 0.66 7 1 C6.67 1.99 6.34 2.98 6 4 C4.35 4 2.7 4 1 4 C0.67 2.68 0.34 1.36 0 0 Z " fill="#1658A4" transform="translate(53,60)"/>
<path d="M0 0 C1.65 0 3.3 0 5 0 C4.67 1.65 4.34 3.3 4 5 C2.68 4.67 1.36 4.34 0 4 C0 2.68 0 1.36 0 0 Z " fill="#175FB5" transform="translate(57,48)"/>
<path d="M0 0 C0.66 0.33 1.32 0.66 2 1 C1.67 2.98 1.34 4.96 1 7 C0.34 7 -0.32 7 -1 7 C-1.33 8.32 -1.66 9.64 -2 11 C-1.85892253 9.54119891 -1.71197585 8.08296449 -1.5625 6.625 C-1.48128906 5.81289063 -1.40007813 5.00078125 -1.31640625 4.1640625 C-1 2 -1 2 0 0 Z " fill="#5F8EC0" transform="translate(19,35)"/>
<path d="M0 0 C1.65 0 3.3 0 5 0 C3.25 4.875 3.25 4.875 1 6 C0.67 4.02 0.34 2.04 0 0 Z " fill="#437AB6" transform="translate(70,106)"/>
<path d="M0 0 C1.98 0 3.96 0 6 0 C5.01 0.33 4.02 0.66 3 1 C3 1.66 3 2.32 3 3 C3.66 3.33 4.32 3.66 5 4 C2.03 3.505 2.03 3.505 -1 3 C-0.67 2.01 -0.34 1.02 0 0 Z " fill="#276DB4" transform="translate(48,79)"/>
<path d="M0 0 C0.33 0.66 0.66 1.32 1 2 C1.66 2 2.32 2 3 2 C3 3.98 3 5.96 3 8 C0.52557871 5.84832931 -0.56238367 4.28212246 -1 1 C-0.67 0.67 -0.34 0.34 0 0 Z " fill="#4F83B8" transform="translate(26,77)"/>
<path d="M0 0 C0.33 0.66 0.66 1.32 1 2 C1.99 1.67 2.98 1.34 4 1 C3.67 2.98 3.34 4.96 3 7 C1.68 5.35 0.36 3.7 -1 2 C-0.67 1.34 -0.34 0.68 0 0 Z " fill="#5085C1" transform="translate(46,108)"/>
<path d="M0 0 C0.99 0 1.98 0 3 0 C3.66 1.98 4.32 3.96 5 6 C4.34 6 3.68 6 3 6 C3 5.34 3 4.68 3 4 C2.01 4 1.02 4 0 4 C0 2.68 0 1.36 0 0 Z " fill="#0564BD" transform="translate(86,22)"/>
<path d="M0 0 C5.875 2.75 5.875 2.75 7 5 C5.68 5.33 4.36 5.66 3 6 C0 2.25 0 2.25 0 0 Z " fill="#5188C6" transform="translate(81,15)"/>
<path d="M0 0 C0.66 0 1.32 0 2 0 C1.67 1.65 1.34 3.3 1 5 C-0.65 5 -2.3 5 -4 5 C-3.67 4.01 -3.34 3.02 -3 2 C-2.01 2 -1.02 2 0 2 C0 1.34 0 0.68 0 0 Z " fill="#0B5DB0" transform="translate(41,13)"/>
</svg>
